<svg width="23" height="31" viewBox="0 0 23 31" fill="none" xmlns="http://www.w3.org/2000/svg">
	<g clip-path="url(#clip0_201_5327)">
		<rect width="22.2457" height="29.6609" transform="translate(0.352295 0.522217)" fill="black" />
		<path d="M13.3289 8.40065V0.521973H1.74265C0.972161 0.521973 0.352295 1.14184 0.352295 1.91233V28.7925C0.352295 29.563 0.972161 30.1829 1.74265 30.1829H21.2076C21.9781 30.1829 22.598 29.563 22.598 28.7925V9.791H14.7193C13.9546 9.791 13.3289 9.16534 13.3289 8.40065ZM17.7578 20.645L12.172 26.1891C11.7868 26.572 11.1646 26.572 10.7794 26.1891L5.19362 20.645C4.60562 20.0617 5.01809 19.06 5.84535 19.06H9.62132V14.4255C9.62132 13.9134 10.0361 13.4986 10.5482 13.4986H12.402C12.9141 13.4986 13.3289 13.9134 13.3289 14.4255V19.06H17.1049C17.9322 19.06 18.3446 20.0617 17.7578 20.645ZM22.1924 6.60477L16.521 0.927493C16.2603 0.666801 15.9069 0.521973 15.5361 0.521973H15.1827V7.93719H22.598V7.58381C22.598 7.21885 22.4531 6.86546 22.1924 6.60477Z" fill="white" />
	</g>
	<defs>
		<clipPath id="clip0_201_5327">
			<rect width="22.2457" height="29.6609" fill="white" transform="translate(0.352295 0.522217)" />
		</clipPath>
	</defs>
</svg>
