<svg width="365" height="150" viewBox="0 0 365 150" fill="none" xmlns="http://www.w3.org/2000/svg">
	<path d="M39.4375 51.375V63.25H0.6875V51.375H39.4375ZM11.0625 34.75H27.625V99.5C27.625 101.5 27.8958 103.042 28.4375 104.125C28.9792 105.208 29.7917 105.938 30.875 106.312C31.9583 106.688 33.25 106.875 34.75 106.875C35.8333 106.875 36.8333 106.812 37.75 106.688C38.6667 106.562 39.4375 106.438 40.0625 106.312L40.125 118.688C38.75 119.146 37.1875 119.521 35.4375 119.812C33.7292 120.104 31.7917 120.25 29.625 120.25C25.9167 120.25 22.6667 119.625 19.875 118.375C17.0833 117.083 14.9167 115.021 13.375 112.188C11.8333 109.312 11.0625 105.521 11.0625 100.812V34.75ZM90.6875 102.938V51.375H107.312V119H91.6875L90.6875 102.938ZM92.8125 88.9375L97.9375 88.8125C97.9375 93.3542 97.4375 97.5417 96.4375 101.375C95.4375 105.208 93.875 108.542 91.75 111.375C89.6667 114.167 87.0208 116.354 83.8125 117.938C80.6042 119.479 76.8125 120.25 72.4375 120.25C69.1042 120.25 66.0625 119.792 63.3125 118.875C60.5625 117.917 58.1875 116.438 56.1875 114.438C54.2292 112.396 52.7083 109.792 51.625 106.625C50.5417 103.417 50 99.5625 50 95.0625V51.375H66.5V95.1875C66.5 97.4375 66.75 99.3125 67.25 100.812C67.7917 102.312 68.5208 103.542 69.4375 104.5C70.3958 105.417 71.5 106.083 72.75 106.5C74.0417 106.875 75.4167 107.062 76.875 107.062C80.875 107.062 84.0208 106.271 86.3125 104.688C88.6458 103.062 90.3125 100.896 91.3125 98.1875C92.3125 95.4375 92.8125 92.3542 92.8125 88.9375ZM121.875 23H138.438V104.062L136.812 119H121.875V23ZM181.938 84.5V85.8125C181.938 90.8542 181.375 95.4792 180.25 99.6875C179.167 103.896 177.521 107.542 175.312 110.625C173.104 113.667 170.354 116.042 167.062 117.75C163.812 119.417 160 120.25 155.625 120.25C151.458 120.25 147.833 119.438 144.75 117.812C141.708 116.188 139.146 113.896 137.062 110.938C134.979 107.938 133.312 104.417 132.062 100.375C130.812 96.2917 129.875 91.8333 129.25 87V83.4375C129.875 78.5625 130.812 74.1042 132.062 70.0625C133.312 66.0208 134.979 62.5 137.062 59.5C139.146 56.5 141.708 54.1875 144.75 52.5625C147.792 50.9375 151.375 50.125 155.5 50.125C159.917 50.125 163.771 50.9792 167.062 52.6875C170.396 54.3542 173.146 56.7292 175.312 59.8125C177.521 62.8542 179.167 66.4792 180.25 70.6875C181.375 74.8542 181.938 79.4583 181.938 84.5ZM165.375 85.8125V84.5C165.375 81.625 165.146 78.9167 164.688 76.375C164.229 73.7917 163.479 71.5208 162.438 69.5625C161.396 67.6042 159.979 66.0625 158.188 64.9375C156.396 63.8125 154.146 63.25 151.438 63.25C148.854 63.25 146.646 63.6875 144.812 64.5625C143.021 65.4375 141.521 66.6458 140.312 68.1875C139.146 69.7292 138.229 71.5417 137.562 73.625C136.938 75.7083 136.521 77.9583 136.312 80.375V90.125C136.604 93.3333 137.292 96.2292 138.375 98.8125C139.458 101.354 141.062 103.375 143.188 104.875C145.354 106.375 148.146 107.125 151.562 107.125C154.229 107.125 156.458 106.604 158.25 105.562C160.042 104.479 161.458 102.979 162.5 101.062C163.542 99.1042 164.271 96.8333 164.688 94.25C165.146 91.6667 165.375 88.8542 165.375 85.8125ZM211.438 51.375V119H194.875V51.375H211.438ZM193.75 33.6875C193.75 31.2292 194.583 29.1875 196.25 27.5625C197.958 25.9375 200.25 25.125 203.125 25.125C206 25.125 208.271 25.9375 209.938 27.5625C211.646 29.1875 212.5 31.2292 212.5 33.6875C212.5 36.1042 211.646 38.125 209.938 39.75C208.271 41.375 206 42.1875 203.125 42.1875C200.25 42.1875 197.958 41.375 196.25 39.75C194.583 38.125 193.75 36.1042 193.75 33.6875ZM243.375 65.8125V119H226.875V51.375H242.375L243.375 65.8125ZM240.75 82.75H235.875C235.917 77.8333 236.583 73.375 237.875 69.375C239.167 65.375 240.979 61.9375 243.312 59.0625C245.688 56.1875 248.5 53.9792 251.75 52.4375C255 50.8958 258.625 50.125 262.625 50.125C265.875 50.125 268.812 50.5833 271.438 51.5C274.062 52.4167 276.312 53.875 278.188 55.875C280.104 57.875 281.562 60.5 282.562 63.75C283.604 66.9583 284.125 70.9167 284.125 75.625V119H267.5V75.5C267.5 72.4167 267.042 69.9792 266.125 68.1875C265.25 66.3958 263.958 65.125 262.25 64.375C260.583 63.625 258.521 63.25 256.062 63.25C253.521 63.25 251.292 63.7708 249.375 64.8125C247.5 65.8125 245.917 67.2083 244.625 69C243.375 70.7917 242.417 72.8542 241.75 75.1875C241.083 77.5208 240.75 80.0417 240.75 82.75ZM341.688 51.375H356.688V116.938C356.688 123.062 355.354 128.25 352.688 132.5C350.062 136.792 346.375 140.042 341.625 142.25C336.875 144.5 331.354 145.625 325.062 145.625C322.354 145.625 319.417 145.25 316.25 144.5C313.125 143.75 310.104 142.562 307.188 140.938C304.312 139.354 301.917 137.292 300 134.75L307.438 125C309.688 127.625 312.229 129.604 315.062 130.938C317.896 132.312 320.958 133 324.25 133C327.583 133 330.417 132.375 332.75 131.125C335.125 129.917 336.938 128.125 338.188 125.75C339.479 123.417 340.125 120.542 340.125 117.125V66.8125L341.688 51.375ZM296 86V84.6875C296 79.5208 296.625 74.8333 297.875 70.625C299.125 66.375 300.917 62.7292 303.25 59.6875C305.625 56.6458 308.479 54.2917 311.812 52.625C315.188 50.9583 318.979 50.125 323.188 50.125C327.646 50.125 331.396 50.9375 334.438 52.5625C337.521 54.1875 340.062 56.5 342.062 59.5C344.104 62.5 345.688 66.0625 346.812 70.1875C347.979 74.2708 348.875 78.7708 349.5 83.6875V87.25C348.917 92.0417 347.979 96.4375 346.688 100.438C345.438 104.438 343.771 107.938 341.688 110.938C339.604 113.896 337.021 116.188 333.938 117.812C330.854 119.438 327.229 120.25 323.062 120.25C318.896 120.25 315.146 119.396 311.812 117.688C308.479 115.979 305.625 113.583 303.25 110.5C300.917 107.417 299.125 103.792 297.875 99.625C296.625 95.4583 296 90.9167 296 86ZM312.5 84.6875V86C312.5 88.9167 312.792 91.6458 313.375 94.1875C313.958 96.7292 314.854 98.9792 316.062 100.938C317.271 102.854 318.792 104.354 320.625 105.438C322.458 106.521 324.646 107.062 327.188 107.062C330.604 107.062 333.396 106.354 335.562 104.938C337.771 103.479 339.438 101.5 340.562 99C341.729 96.4583 342.479 93.6042 342.812 90.4375V80.625C342.604 78.125 342.146 75.8125 341.438 73.6875C340.771 71.5625 339.833 69.7292 338.625 68.1875C337.417 66.6458 335.875 65.4375 334 64.5625C332.125 63.6875 329.896 63.25 327.312 63.25C324.812 63.25 322.625 63.8125 320.75 64.9375C318.875 66.0208 317.333 67.5417 316.125 69.5C314.917 71.4583 314 73.7292 313.375 76.3125C312.792 78.8958 312.5 81.6875 312.5 84.6875Z" fill="white" />
	<rect x="122" y="50" width="62" height="71" rx="15" fill="#FF0000" />
	<path d="M172 86L142 103.321V68.6795L172 86Z" fill="white" />
</svg>
