<svg width="35" height="47" viewBox="0 0 35 47" fill="none" xmlns="http://www.w3.org/2000/svg">
<g clip-path="url(#clip0_201_6621)">
<path d="M10.2808 26.9172C9.9688 28.629 8.72953 36.6085 8.36399 38.8641C8.33724 39.0246 8.27483 39.087 8.09652 39.087H1.44546C0.767877 39.087 0.277518 38.4986 0.366674 37.8478L5.59123 4.69055C5.72496 3.83465 6.49171 3.18381 7.37435 3.18381C20.9528 3.18381 22.094 2.85394 25.5622 4.2002C30.9205 6.27754 31.4109 11.2881 29.4851 16.7088C27.5682 22.29 23.0213 24.6883 16.9943 24.7596C13.1249 24.822 10.798 24.1355 10.2808 26.9172ZM32.1865 14.0876C32.0261 13.9717 31.9636 13.9271 31.9191 14.2035C31.7408 15.2199 31.4644 16.2095 31.1345 17.1992C27.5772 27.3452 17.7165 26.4625 12.902 26.4625C12.3582 26.4625 12.0016 26.7567 11.9302 27.3006C9.91531 39.8181 9.5141 42.4304 9.5141 42.4304C9.42495 43.0634 9.82615 43.5805 10.4592 43.5805H16.1206C16.8873 43.5805 17.5203 43.0188 17.6719 42.2521C17.7343 41.7706 17.5738 42.7959 18.9557 34.1121C19.3659 32.1507 20.2307 32.3557 21.568 32.3557C27.8981 32.3557 32.8374 29.788 34.3085 22.3435C34.888 19.2409 34.7186 15.9777 32.1865 14.0876Z" fill="#6C6C6C"/>
</g>
<defs>
<clipPath id="clip0_201_6621">
<rect width="34.236" height="45.648" fill="white" transform="translate(0.347412 0.535889)"/>
</clipPath>
</defs>
</svg>
