<svg width="38" height="31" viewBox="0 0 38 31" fill="none" xmlns="http://www.w3.org/2000/svg">
<g clip-path="url(#clip0_201_4519)">
<path d="M3.31098 0.608921C1.77754 0.608921 0.530273 1.85618 0.530273 3.38963V7.09724C0.530273 7.60935 0.945062 8.02414 1.45718 8.02414H6.09169V3.38963C6.09169 1.85618 4.84443 0.608921 3.31098 0.608921ZM15.3607 24.5097V21.0008H32.045V6.17034C32.045 3.10345 29.5504 0.608921 26.4836 0.608921H6.99484C7.58284 1.38578 7.9455 2.34223 7.9455 3.38963V24.7084C7.9455 26.9602 9.95282 28.7433 12.2759 28.365C14.099 28.0684 15.3607 26.3571 15.3607 24.5097ZM17.2145 22.8546V24.7084C17.2145 27.7747 14.72 30.2698 11.6531 30.2698H31.1181C34.7017 30.2698 37.6064 27.3651 37.6064 23.7815C37.6064 23.2694 37.1916 22.8546 36.6795 22.8546H17.2145Z" fill="#6C6C6C"/>
</g>
<defs>
<clipPath id="clip0_201_4519">
<rect width="37.0761" height="29.6609" fill="white" transform="translate(0.530151 0.608887)"/>
</clipPath>
</defs>
</svg>
