<svg width="100" height="150" viewBox="0 0 100 150" fill="none" xmlns="http://www.w3.org/2000/svg">
	<path d="M39.4375 51.375V63.25H0.6875V51.375H39.4375ZM11.0625 34.75H27.625V99.5C27.625 101.5 27.8958 103.042 28.4375 104.125C28.9792 105.208 29.7917 105.938 30.875 106.312C31.9583 106.688 33.25 106.875 34.75 106.875C35.8333 106.875 36.8333 106.812 37.75 106.688C38.6667 106.562 39.4375 106.438 40.0625 106.312L40.125 118.688C38.75 119.146 37.1875 119.521 35.4375 119.812C33.7292 120.104 31.7917 120.25 29.625 120.25C25.9167 120.25 22.6667 119.625 19.875 118.375C17.0833 117.083 14.9167 115.021 13.375 112.188C11.8333 109.312 11.0625 105.521 11.0625 100.812V34.75Z" fill="white" />
	<rect x="19.3548" y="57" width="80.6452" height="57" rx="15" fill="#FF0000" />
	<path d="M80.6452 85.5L48.3871 101.954V69.0455L80.6452 85.5Z" fill="white" />
</svg>
