<svg width="38" height="31" viewBox="0 0 38 31" fill="none" xmlns="http://www.w3.org/2000/svg">
	<g clip-path="url(#clip0_201_4035)">
		<path d="M29.301 8.07612C27.7903 8.07605 26.3079 8.4862 25.0121 9.26279C23.7164 10.0394 22.6558 11.1533 21.9436 12.4856C21.2314 13.8178 20.8944 15.3185 20.9685 16.8274C21.0426 18.3362 21.525 19.7967 22.3643 21.0528H15.8458C16.879 19.5064 17.3659 17.6592 17.229 15.8045C17.0922 13.9498 16.3395 12.194 15.0906 10.816C13.8417 9.43804 12.1681 8.51691 10.3358 8.19895C8.5034 7.88099 6.61733 8.18444 4.97718 9.06109C3.33702 9.93774 2.03682 11.3373 1.28314 13.0375C0.529456 14.7377 0.365504 16.6409 0.817326 18.445C1.26915 20.249 2.31084 21.8503 3.77691 22.9945C5.24298 24.1388 7.04937 24.7603 8.90911 24.7604H29.301C31.5134 24.7604 33.6353 23.8815 35.1997 22.317C36.7642 20.7526 37.6431 18.6307 37.6431 16.4182C37.6431 14.2058 36.7642 12.0839 35.1997 10.5195C33.6353 8.95502 31.5134 8.07612 29.301 8.07612ZM4.2746 16.4182C4.2746 15.5016 4.54641 14.6056 5.05565 13.8435C5.5649 13.0813 6.28871 12.4873 7.13556 12.1365C7.9824 11.7857 8.91425 11.694 9.81326 11.8728C10.7123 12.0516 11.5381 12.493 12.1862 13.1412C12.8344 13.7893 13.2757 14.6151 13.4546 15.5141C13.6334 16.4131 13.5416 17.345 13.1908 18.1918C12.8401 19.0386 12.246 19.7625 11.4839 20.2717C10.7218 20.781 9.82573 21.0528 8.90911 21.0528C7.67996 21.0528 6.50115 20.5645 5.63201 19.6953C4.76287 18.8262 4.2746 17.6474 4.2746 16.4182ZM29.301 21.0528C28.3843 21.0528 27.4883 20.781 26.7262 20.2717C25.964 19.7625 25.37 19.0386 25.0192 18.1918C24.6685 17.345 24.5767 16.4131 24.7555 15.5141C24.9343 14.6151 25.3757 13.7893 26.0239 13.1412C26.672 12.493 27.4978 12.0516 28.3968 11.8728C29.2958 11.694 30.2277 11.7857 31.0745 12.1365C31.9214 12.4873 32.6452 13.0813 33.1544 13.8435C33.6637 14.6056 33.9355 15.5016 33.9355 16.4182C33.9355 17.6474 33.4472 18.8262 32.5781 19.6953C31.7089 20.5645 30.5301 21.0528 29.301 21.0528Z" fill="#6C6C6C" />
	</g>
	<defs>
		<clipPath id="clip0_201_4035">
			<rect width="37.0761" height="29.6609" fill="white" transform="translate(0.566528 0.660889)" />
		</clipPath>
	</defs>
</svg>
